<?xml version="1.0" encoding="UTF-8"?>
<svg width="23px" height="24px" viewBox="0 0 23 24" version="1.1" xmlns="http://www.w3.org/2000/svg" xmlns:xlink="http://www.w3.org/1999/xlink">
    <!-- Generator: Sketch 54 (76480) - https://sketchapp.com -->
    <title>Group 11</title>
    <desc>Created with Sketch.</desc>
    <defs>
        <path d="M11.7323129,0.454545455 C8.59864733,0.454545455 5.65200899,1.65076413 3.43633755,3.82276623 L3.43633755,3.82276623 C1.2201544,5.9950191 0,8.88274617 0,11.9545455 L0,11.9545455 C0,15.026094 1.2201544,17.9143226 3.43633755,20.0863247 L3.43633755,20.0863247 C3.73235739,20.3764767 4.0421932,20.6488233 4.36277476,20.9036154 L4.36277476,20.9036154 C6.44335677,22.5562529 9.01747575,23.4545455 11.7323129,23.4545455 L11.7323129,23.4545455 C14.8662343,23.4545455 17.8126168,22.2583268 20.0285441,20.0863247 L20.0285441,20.0863247 C20.40004,19.7221927 20.7426248,19.3374968 21.0570659,18.9357479 L21.0570659,18.9357479 L21.0493904,18.9357479 C21.1635,18.8058441 21.2724927,18.6706739 21.3763682,18.5304881 L21.3763682,18.5304881 C21.4224215,18.4682947 21.4636135,18.4015873 21.5076199,18.3373878 L21.5076199,18.3373878 C21.571071,18.2448501 21.6350338,18.1530648 21.6943913,18.0567654 L21.6943913,18.0567654 C21.7404445,17.9812807 21.78266,17.9027867 21.8261547,17.8252958 L21.8261547,17.8252958 C21.8775808,17.7342628 21.928751,17.6437314 21.9763393,17.5494383 L21.9763393,17.5494383 C22.0177872,17.4679349 22.0566766,17.383673 22.095566,17.2996618 L22.095566,17.2996618 C22.1398282,17.2041148 22.1828112,17.1078154 22.2237474,17.0095098 L22.2237474,17.0095098 C22.2593108,16.9234924 22.2938507,16.8364719 22.3268555,16.7484482 L22.3268555,16.7484482 C22.3657449,16.6453778 22.4023316,16.5408027 22.437639,16.4349737 L22.437639,16.4349737 C22.4665502,16.3474517 22.4959731,16.2601804 22.5230934,16.170652 L22.5230934,16.170652 C22.5576333,16.055795 22.5885913,15.9381794 22.6192934,15.8203129 L22.6192934,15.8203129 C22.6412966,15.7363018 22.6645791,15.653043 22.6845355,15.5670256 L22.6845355,15.5670256 C22.7188195,15.4215734 22.7479866,15.2726103 22.776386,15.1231457 L22.776386,15.1231457 C22.7881552,15.0614539 22.802227,15.0012668 22.8132286,14.9388227 L22.8132286,14.9388227 C22.8498153,14.7276662 22.8802616,14.5127481 22.9063585,14.2943191 L22.9063585,14.2943191 C22.9148015,14.2241008 22.9196627,14.1518763 22.9270824,14.0806549 L22.9270824,14.0806549 C22.9426893,13.926927 22.9577846,13.7726975 22.9680186,13.6154587 L22.9680186,13.6154587 C22.974159,13.5279366 22.9772292,13.4389099 22.9818346,13.3501339 L22.9818346,13.3501339 C22.9887425,13.2059356 22.994883,13.0612358 22.9976973,12.9147805 L22.9976973,12.9147805 C22.9997441,12.820989 23,12.7266958 23,12.6319011 L23,12.6319011 L23,12.5739711 C23,12.4475781 22.9984649,12.3204329 22.9953947,12.1925353 L22.9953947,12.1925353 C22.993092,12.0969883 22.9902777,12.0014412 22.986184,11.9051419 L22.986184,11.9051419 C22.9797878,11.7526679 22.970833,11.59894 22.9605989,11.4444598 L22.9605989,11.4444598 C22.9542026,11.3524236 22.9488298,11.2606383 22.9408984,11.1678499 L22.9408984,11.1678499 C22.9270824,10.9980721 22.9094287,10.8267896 22.8907515,10.6550056 L22.8907515,10.6550056 C22.8820526,10.57601 22.8754005,10.4977668 22.8656781,10.4185204 L22.8656781,10.4185204 C22.834976,10.1669885 22.8006919,9.91420265 22.7602674,9.65941058 L22.7602674,9.65941058 C22.0195782,5.15114576 22.2173512,3.11807556 22.4005406,2.43018712 L22.4005406,2.43018712 C21.7256051,3.20334062 17.3229176,4.70400573 12.5840416,7.95511243 L12.5840416,7.95511243 C10.6751357,9.26418193 10.0060848,10.9358787 9.81061449,12.1406239 L9.81061449,12.1406239 C10.2445381,12.3495233 11.334976,12.6507096 12.4489521,13.2490697 L12.4489521,13.2490697 C12.9688418,13.4950845 13.4283505,13.761914 13.8305486,14.0495582 L13.8305486,14.0495582 L16.2506452,10.8904876 L17.81057,8.85415729 L17.8241301,10.9092961 L21.4687305,3.93461393 L17.7962423,13.3917633 L17.2318346,14.8460342 L16.8411498,13.6277469 L15.6534885,16.1826895 C16.1245105,17.2299451 16.1920553,18.4301762 15.9180386,19.7708439 L15.9180386,19.7708439 C15.8924535,19.9371108 15.8591928,20.099616 15.8220944,20.2591118 L15.8220944,20.2591118 C15.8093019,20.3137818 15.7947183,20.3669471 15.7806465,20.4208647 L15.7806465,20.4208647 C15.7542939,20.5231827 15.7261502,20.6239961 15.6959598,20.7233049 L15.6959598,20.7233049 C15.6765151,20.7862505 15.6565587,20.8489454 15.6358347,20.910888 L15.6358347,20.910888 C15.6056443,20.9999148 15.5736629,21.0871861 15.5406581,21.1739558 L15.5406581,21.1739558 C15.518399,21.232889 15.4963958,21.2930761 15.4726017,21.3510062 L15.4726017,21.3510062 C15.4679964,21.3632944 15.4621118,21.3745795 15.4569947,21.3866169 L15.4569947,21.3866169 C14.3008032,21.8267351 13.0450854,22.0689882 11.7323129,22.0689882 L11.7323129,22.0689882 C11.6092485,22.0689882 11.4869516,22.0649757 11.3646547,22.0607125 L11.3646547,22.0607125 L9.76711978,18.7180712 L8.86908205,16.8387289 L10.2900796,17.8548878 L7.17176515,13.1976599 L11.9346912,19.0491003 L12.8132842,20.1287064 L11.8262103,19.7046381 L13.126702,21.4355189 C13.173011,21.4784022 13.2124121,21.529812 13.2433701,21.5905007 L13.2433701,21.5905007 L13.3191021,21.6915649 C13.7919151,21.0646159 14.311293,20.1615586 14.479899,19.0689119 L14.479899,19.0689119 C14.9481067,16.776034 14.0833296,15.0321127 11.3306265,13.9472401 L11.3306265,13.9472401 C8.21435881,12.719674 6.25581783,11.7431383 5.78786598,11.3168129 L5.78786598,11.3168129 C5.94879639,11.7245806 6.21539334,12.9534006 6.08260657,15.7568657 L6.08260657,15.7568657 C5.98666237,18.0876113 6.51525096,20.1419978 7.77148038,21.292073 L7.77148038,21.292073 C6.77724259,20.8853085 5.86052772,20.3313363 5.05127036,19.6562377 L5.05127036,19.6562377 C2.82715582,17.7997163 1.41332206,15.0361251 1.41332206,11.9545455 L1.41332206,11.9545455 C1.41332206,6.37745799 6.04269378,1.84010273 11.7323129,1.84010273 L11.7323129,1.84010273 C14.1495951,1.84010273 16.3755006,2.65939968 18.1362686,4.02915784 L18.1362686,4.02915784 C18.6356901,3.77837824 19.0982691,3.55242582 19.5142832,3.34954513 L19.5142832,3.34954513 C17.3664123,1.47822777 14.6300837,0.454545455 11.7323129,0.454545455 Z" id="path-1"></path>
        <linearGradient x1="18.685348%" y1="9.04814052%" x2="93.8892089%" y2="85.150124%" id="linearGradient-3">
            <stop stop-color="#CFD850" offset="0%"></stop>
            <stop stop-color="#64AF56" offset="100%"></stop>
        </linearGradient>
        <path d="M11.7323129,0.454545455 C8.59864733,0.454545455 5.65200899,1.65076413 3.43633755,3.82276623 L3.43633755,3.82276623 C1.2201544,5.9950191 0,8.88274617 0,11.9545455 L0,11.9545455 C0,15.026094 1.2201544,17.9143226 3.43633755,20.0863247 L3.43633755,20.0863247 C3.73235739,20.3764767 4.0421932,20.6488233 4.36277476,20.9036154 L4.36277476,20.9036154 C6.44335677,22.5562529 9.01747575,23.4545455 11.7323129,23.4545455 L11.7323129,23.4545455 C14.8662343,23.4545455 17.8126168,22.2583268 20.0285441,20.0863247 L20.0285441,20.0863247 C20.40004,19.7221927 20.7426248,19.3374968 21.0570659,18.9357479 L21.0570659,18.9357479 L21.0493904,18.9357479 C21.1635,18.8058441 21.2724927,18.6706739 21.3763682,18.5304881 L21.3763682,18.5304881 C21.4224215,18.4682947 21.4636135,18.4015873 21.5076199,18.3373878 L21.5076199,18.3373878 C21.571071,18.2448501 21.6350338,18.1530648 21.6943913,18.0567654 L21.6943913,18.0567654 C21.7404445,17.9812807 21.78266,17.9027867 21.8261547,17.8252958 L21.8261547,17.8252958 C21.8775808,17.7342628 21.928751,17.6437314 21.9763393,17.5494383 L21.9763393,17.5494383 C22.0177872,17.4679349 22.0566766,17.383673 22.095566,17.2996618 L22.095566,17.2996618 C22.1398282,17.2041148 22.1828112,17.1078154 22.2237474,17.0095098 L22.2237474,17.0095098 C22.2593108,16.9234924 22.2938507,16.8364719 22.3268555,16.7484482 L22.3268555,16.7484482 C22.3657449,16.6453778 22.4023316,16.5408027 22.437639,16.4349737 L22.437639,16.4349737 C22.4665502,16.3474517 22.4959731,16.2601804 22.5230934,16.170652 L22.5230934,16.170652 C22.5576333,16.055795 22.5885913,15.9381794 22.6192934,15.8203129 L22.6192934,15.8203129 C22.6412966,15.7363018 22.6645791,15.653043 22.6845355,15.5670256 L22.6845355,15.5670256 C22.7188195,15.4215734 22.7479866,15.2726103 22.776386,15.1231457 L22.776386,15.1231457 C22.7881552,15.0614539 22.802227,15.0012668 22.8132286,14.9388227 L22.8132286,14.9388227 C22.8498153,14.7276662 22.8802616,14.5127481 22.9063585,14.2943191 L22.9063585,14.2943191 C22.9148015,14.2241008 22.9196627,14.1518763 22.9270824,14.0806549 L22.9270824,14.0806549 C22.9426893,13.926927 22.9577846,13.7726975 22.9680186,13.6154587 L22.9680186,13.6154587 C22.974159,13.5279366 22.9772292,13.4389099 22.9818346,13.3501339 L22.9818346,13.3501339 C22.9887425,13.2059356 22.994883,13.0612358 22.9976973,12.9147805 L22.9976973,12.9147805 C22.9997441,12.820989 23,12.7266958 23,12.6319011 L23,12.6319011 L23,12.5739711 C23,12.4475781 22.9984649,12.3204329 22.9953947,12.1925353 L22.9953947,12.1925353 C22.993092,12.0969883 22.9902777,12.0014412 22.986184,11.9051419 L22.986184,11.9051419 C22.9797878,11.7526679 22.970833,11.59894 22.9605989,11.4444598 L22.9605989,11.4444598 C22.9542026,11.3524236 22.9488298,11.2606383 22.9408984,11.1678499 L22.9408984,11.1678499 C22.9270824,10.9980721 22.9094287,10.8267896 22.8907515,10.6550056 L22.8907515,10.6550056 C22.8820526,10.57601 22.8754005,10.4977668 22.8656781,10.4185204 L22.8656781,10.4185204 C22.834976,10.1669885 22.8006919,9.91420265 22.7602674,9.65941058 L22.7602674,9.65941058 C22.0195782,5.15114576 22.2173512,3.11807556 22.4005406,2.43018712 L22.4005406,2.43018712 C21.7256051,3.20334062 17.3229176,4.70400573 12.5840416,7.95511243 L12.5840416,7.95511243 C10.6751357,9.26418193 10.0060848,10.9358787 9.81061449,12.1406239 L9.81061449,12.1406239 C10.2445381,12.3495233 11.334976,12.6507096 12.4489521,13.2490697 L12.4489521,13.2490697 C12.9688418,13.4950845 13.4283505,13.761914 13.8305486,14.0495582 L13.8305486,14.0495582 L16.2506452,10.8904876 L17.81057,8.85415729 L17.8241301,10.9092961 L21.4687305,3.93461393 L17.7962423,13.3917633 L17.2318346,14.8460342 L16.8411498,13.6277469 L15.6534885,16.1826895 C16.1245105,17.2299451 16.1920553,18.4301762 15.9180386,19.7708439 L15.9180386,19.7708439 C15.8924535,19.9371108 15.8591928,20.099616 15.8220944,20.2591118 L15.8220944,20.2591118 C15.8093019,20.3137818 15.7947183,20.3669471 15.7806465,20.4208647 L15.7806465,20.4208647 C15.7542939,20.5231827 15.7261502,20.6239961 15.6959598,20.7233049 L15.6959598,20.7233049 C15.6765151,20.7862505 15.6565587,20.8489454 15.6358347,20.910888 L15.6358347,20.910888 C15.6056443,20.9999148 15.5736629,21.0871861 15.5406581,21.1739558 L15.5406581,21.1739558 C15.518399,21.232889 15.4963958,21.2930761 15.4726017,21.3510062 L15.4726017,21.3510062 C15.4679964,21.3632944 15.4621118,21.3745795 15.4569947,21.3866169 L15.4569947,21.3866169 C14.3008032,21.8267351 13.0450854,22.0689882 11.7323129,22.0689882 L11.7323129,22.0689882 C11.6092485,22.0689882 11.4869516,22.0649757 11.3646547,22.0607125 L11.3646547,22.0607125 L9.76711978,18.7180712 L8.86908205,16.8387289 L10.2900796,17.8548878 L7.17176515,13.1976599 L11.9346912,19.0491003 L12.8132842,20.1287064 L11.8262103,19.7046381 L13.126702,21.4355189 C13.173011,21.4784022 13.2124121,21.529812 13.2433701,21.5905007 L13.2433701,21.5905007 L13.3191021,21.6915649 C13.7919151,21.0646159 14.311293,20.1615586 14.479899,19.0689119 L14.479899,19.0689119 C14.9481067,16.776034 14.0833296,15.0321127 11.3306265,13.9472401 L11.3306265,13.9472401 C8.21435881,12.719674 6.25581783,11.7431383 5.78786598,11.3168129 L5.78786598,11.3168129 C5.94879639,11.7245806 6.21539334,12.9534006 6.08260657,15.7568657 L6.08260657,15.7568657 C5.98666237,18.0876113 6.51525096,20.1419978 7.77148038,21.292073 L7.77148038,21.292073 C6.77724259,20.8853085 5.86052772,20.3313363 5.05127036,19.6562377 L5.05127036,19.6562377 C2.82715582,17.7997163 1.41332206,15.0361251 1.41332206,11.9545455 L1.41332206,11.9545455 C1.41332206,6.37745799 6.04269378,1.84010273 11.7323129,1.84010273 L11.7323129,1.84010273 C14.1495951,1.84010273 16.3755006,2.65939968 18.1362686,4.02915784 L18.1362686,4.02915784 C18.6356901,3.77837824 19.0982691,3.55242582 19.5142832,3.34954513 L19.5142832,3.34954513 C17.3664123,1.47822777 14.6300837,0.454545455 11.7323129,0.454545455 Z" id="path-4"></path>
        <filter x="-30.4%" y="-21.7%" width="160.9%" height="160.9%" filterUnits="objectBoundingBox" id="filter-5">
            <feOffset dx="0" dy="2" in="SourceAlpha" result="shadowOffsetOuter1"></feOffset>
            <feGaussianBlur stdDeviation="2" in="shadowOffsetOuter1" result="shadowBlurOuter1"></feGaussianBlur>
            <feColorMatrix values="0 0 0 0 0   0 0 0 0 0   0 0 0 0 0  0 0 0 0.5 0" type="matrix" in="shadowBlurOuter1"></feColorMatrix>
        </filter>
    </defs>
    <g id="Page-3" stroke="none" stroke-width="1" fill="none" fill-rule="evenodd">
        <g id="Wide-screen" transform="translate(-1095.000000, -18.000000)">
            <g id="Group-12" transform="translate(1095.000000, 18.000000)">
                <g id="Group-11">
                    <mask id="mask-2" fill="white">
                        <use xlink:href="#path-1"></use>
                    </mask>
                    <g id="Clip-2"></g>
                    <g id="Fill-1" mask="url(#mask-2)">
                        <use fill="black" fill-opacity="1" filter="url(#filter-5)" xlink:href="#path-4"></use>
                        <use fill="url(#linearGradient-3)" fill-rule="evenodd" xlink:href="#path-4"></use>
                    </g>
                </g>
            </g>
        </g>
    </g>
</svg>